<svg width="444" height="121" viewBox="0 0 444 121" fill="none" xmlns="http://www.w3.org/2000/svg">
<g clip-path="url(#clip0_640_158)">
<path d="M23.5921 2.75391H4.78664C2.14305 2.75391 0 4.89696 0 7.54054V113.367C0 116.011 2.14305 118.154 4.78664 118.154H23.5921C26.2357 118.154 28.3788 116.011 28.3788 113.367V7.54054C28.3788 4.89696 26.2357 2.75391 23.5921 2.75391Z" fill="#232323"/>
<path d="M81.8758 55.8366C81.2595 55.7528 80.6433 55.693 80.033 55.6451C79.5005 55.6272 78.9979 55.5075 78.4773 55.2861C76.1378 54.3109 75.0369 51.6244 76.0122 49.2849C76.3353 48.5071 76.8259 47.8788 77.4542 47.4061C80.8946 44.7017 83.7187 41.1117 85.5256 36.7858C91.1799 23.2575 84.7957 7.70696 71.2674 2.05274C65.6312 -0.304674 59.6419 -0.561956 54.1612 0.909935C48.6805 2.37584 43.6246 5.59486 39.9209 10.4533C31.0298 22.1147 33.2795 38.7722 44.9349 47.6634C48.6625 50.5055 52.9047 52.2047 57.2366 52.827C58.0144 52.9227 58.7564 53.2219 59.4265 53.7305C61.4429 55.2682 61.8258 58.1462 60.2941 60.1565C59.953 60.6053 59.5761 60.9583 59.1273 61.2455C58.6187 61.5925 58.1161 61.9515 57.6255 62.3345C43.3913 73.3318 40.7586 93.7827 51.7559 108.023C60.0308 118.739 73.6608 122.873 85.9624 119.583C98.2641 116.28 107.999 105.881 109.812 92.4663C112.217 74.6421 99.712 58.2419 81.8878 55.8366H81.8758Z" fill="#232323"/>
<path d="M152.3 10.4877C152.3 9.82951 152.838 9.29102 153.497 9.29102H195.733C213.796 9.29102 226.409 20.3302 226.409 35.5218C226.409 45.7353 220.533 53.8845 211.487 57.2591C210.404 57.666 210.464 59.2276 211.582 59.5268C222.622 62.4945 229.556 71.3797 229.556 82.9693C229.556 98.8789 216.943 109.631 198.736 109.631H153.491C152.832 109.631 152.294 109.092 152.294 108.434V10.4877H152.3ZM194.153 53.723C205.192 53.723 212.785 46.6986 212.785 36.8082C212.785 26.9178 205.186 20.037 194.153 20.037H167.396C166.738 20.037 166.199 20.5755 166.199 21.2337V52.5263C166.199 53.1845 166.738 53.723 167.396 53.723H194.153ZM197.306 98.7353C208.058 98.7353 215.651 91.5673 215.651 81.5333C215.651 71.4994 208.052 64.1878 197.306 64.1878H167.396C166.738 64.1878 166.199 64.7263 166.199 65.3844V97.5387C166.199 98.1968 166.738 98.7353 167.396 98.7353H197.306Z" fill="#232323"/>
<path d="M233.946 73.7926C233.946 51.5766 249.138 35.9482 270.355 35.9482C291.571 35.9482 306.619 51.5706 306.619 73.7926C306.619 96.0146 291.571 111.775 270.355 111.775C249.138 111.775 233.946 96.0086 233.946 73.7926ZM270.355 100.311C283.685 100.311 292.858 89.415 292.858 73.7926C292.858 58.1702 283.685 47.4182 270.355 47.4182C257.024 47.4182 247.708 58.3138 247.708 73.7926C247.708 89.2714 256.88 100.311 270.355 100.311Z" fill="#232323"/>
<path d="M312.585 89.7065V10.4877C312.585 9.82951 313.123 9.29102 313.782 9.29102H324.863C325.521 9.29102 326.059 9.82951 326.059 10.4877V87.1217C326.059 96.9762 331.145 99.7106 338.923 97.7181C339.671 97.5267 340.413 98.0652 340.431 98.843L340.653 107.686C340.665 108.237 340.306 108.733 339.773 108.871C326.556 112.377 312.585 109.739 312.585 89.7005V89.7065Z" fill="#232323"/>
<path d="M347.744 87.5526V50.6237C347.744 49.9655 347.206 49.427 346.547 49.427H335.179C334.521 49.427 333.982 48.8885 333.982 48.2304V39.2973C333.982 38.6391 334.521 38.1006 335.179 38.1006H346.547C347.206 38.1006 347.744 37.5621 347.744 36.904V21.3773C347.744 20.7192 348.283 20.1807 348.941 20.1807H360.165C360.823 20.1807 361.362 20.7192 361.362 21.3773V36.904C361.362 37.5621 361.9 38.1006 362.559 38.1006H378.654C379.312 38.1006 379.85 38.6391 379.85 39.2973V48.2304C379.85 48.8885 379.312 49.427 378.654 49.427H362.559C361.9 49.427 361.362 49.9655 361.362 50.6237V86.5534C361.362 98.3704 368.781 100.249 376.201 98.0832C376.96 97.8618 377.726 98.4063 377.744 99.1961L377.966 108.003C377.978 108.542 377.637 109.033 377.116 109.182C363.408 113.197 347.744 109.17 347.744 87.5586V87.5526Z" fill="#232323"/>
<path d="M386.541 99.4792L425.403 51.5231C426.037 50.7393 425.481 49.5725 424.475 49.5725H387.762C387.104 49.5725 386.565 49.034 386.565 48.3759V39.2992C386.565 38.641 387.104 38.1025 387.762 38.1025H442.419C443.078 38.1025 443.616 38.641 443.616 39.2992V47.9989C443.616 48.2741 443.52 48.5434 443.347 48.7588L404.372 96.2781C403.731 97.0619 404.288 98.2347 405.299 98.2347H442.713C443.371 98.2347 443.909 98.7732 443.909 99.4313V108.436C443.909 109.094 443.371 109.633 442.713 109.633H387.487C386.829 109.633 386.29 109.094 386.29 108.436V100.239C386.29 99.9638 386.386 99.7006 386.559 99.4852L386.541 99.4792Z" fill="#232323"/>
</g>
<defs>
<clipPath id="clip0_640_158">
<rect width="443.895" height="120.689" fill="white"/>
</clipPath>
</defs>
</svg>
